<svg xmlns="http://www.w3.org/2000/svg" viewBox="0 0 200 200" width="100%" height="100%">
    <defs>
        <linearGradient id="swooshGrad" x1="0%" y1="0%" x2="0%" y2="100%">
            <stop offset="0%" stop-color="#00B4D8" />
            <stop offset="100%" stop-color="#0077B6" />
        </linearGradient>
        
        <filter id="shadow" x="-20%" y="-20%" width="140%" height="140%">
            <feDropShadow dx="2" dy="5" stdDeviation="4" flood-color="#03045E" flood-opacity="0.15" />
        </filter>
    </defs>

    <g stroke="#FF6B6B" fill="none">
        <circle cx="64" cy="122" r="18" stroke-width="2.5" opacity="0.8" />
        <circle cx="64" cy="122" r="28" stroke-width="2" opacity="0.4" />
        <circle cx="64" cy="122" r="38" stroke-width="1.5" opacity="0.15" />
    </g>

    <g filter="url(#shadow)">
        <rect x="60" y="35" width="22" height="14" rx="5" fill="#1E3A8A" />
        <rect x="56" y="55" width="22" height="14" rx="5" fill="#1E3A8A" />
        <rect x="53" y="75" width="22" height="14" rx="5" fill="#1E3A8A" />
        <rect x="51" y="95" width="22" height="14" rx="5" fill="#1E3A8A" />
        
        <rect x="53" y="115" width="22" height="14" rx="5" fill="#FF6B6B" />
        
        <rect x="57" y="135" width="22" height="14" rx="5" fill="#1E3A8A" />
        <rect x="62" y="155" width="22" height="14" rx="5" fill="#1E3A8A" />
    </g>

    <g filter="url(#shadow)" stroke="url(#swooshGrad)" stroke-width="16" fill="none" stroke-linecap="round">
        
        <path d="M 82 42 C 160 30, 165 122, 75 122" />
        
        <path d="M 92 116 Q 120 120 145 162" />
    </g>
</svg>